<?xml version="1.0" standalone="no"?>
<!DOCTYPE svg PUBLIC "-//W3C//DTD SVG 20010904//EN"
 "http://www.w3.org/TR/2001/REC-SVG-20010904/DTD/svg10.dtd">
<svg version="1.0" xmlns="http://www.w3.org/2000/svg"
 width="512.000000pt" height="512.000000pt" viewBox="0 0 512.000000 512.000000"
 preserveAspectRatio="xMidYMid meet">
<metadata>
Created by potrace 1.14, written by Peter Selinger 2001-2017
</metadata>
<g transform="translate(0.000000,512.000000) scale(0.100000,-0.100000)"
fill="#000000" stroke="none">
<path d="M4112 2958 c-16 -8 -21 -16 -16 -27 7 -16 6 -142 -1 -150 -7 -7 -107
72 -113 90 -7 16 -10 16 -50 -5 l-43 -22 92 -59 c84 -54 94 -63 120 -119 16
-34 29 -67 29 -74 0 -9 12 -6 41 9 l41 20 -20 22 c-11 12 -30 46 -42 74 -22
53 -23 105 -3 221 6 34 1 37 -35 20z"/>
<path d="M1502 2823 c11 -40 6 -256 -7 -285 -6 -15 -2 -18 29 -18 33 0 36 2
26 19 -12 23 -14 209 -2 196 5 -6 24 -48 42 -95 29 -76 58 -120 80 -120 4 0
27 51 51 114 24 63 45 113 48 111 6 -6 1 -194 -6 -211 -4 -11 4 -14 33 -14
l39 0 0 170 0 170 -31 0 c-32 0 -32 -1 -73 -116 -23 -63 -41 -120 -41 -125 0
-28 -22 4 -78 116 -58 117 -64 125 -91 125 -29 0 -29 0 -19 -37z"/>
<path d="M1946 2833 c6 -22 -32 -277 -45 -302 -9 -16 0 -19 100 -32 l110 -15
-6 25 c-9 34 -12 36 -30 21 -10 -8 -29 -10 -60 -5 l-46 6 6 47 c13 91 13 91
77 68 31 -11 38 -11 42 1 13 32 6 38 -46 38 -41 0 -53 3 -51 15 1 8 4 37 8 64
l7 48 41 -6 c23 -4 50 -14 59 -23 17 -15 19 -15 33 3 8 10 15 22 15 25 0 3
-35 12 -77 18 -43 7 -92 15 -110 18 -27 4 -31 2 -27 -14z"/>
<path d="M1215 2825 c-74 -27 -102 -91 -84 -191 21 -113 64 -150 165 -142 46
4 61 10 87 37 31 30 32 35 32 114 0 64 -4 89 -20 116 -41 69 -107 93 -180 66z
m89 -66 c42 -33 69 -96 70 -164 l1 -60 -52 -3 c-47 -3 -54 0 -86 32 -51 51
-96 184 -70 209 3 4 30 7 58 7 38 0 60 -6 79 -21z"/>
<path d="M2340 2798 c0 -26 -79 -279 -92 -295 -12 -15 -9 -16 93 -47 106 -32
107 -32 102 -3 -4 20 -11 24 -46 24 -23 0 -52 5 -64 11 l-21 12 40 127 c22 71
44 132 49 138 17 18 9 32 -26 42 -32 10 -35 9 -35 -9z"/>
<path d="M3672 2777 c-46 -17 -60 -25 -51 -34 13 -13 99 -270 99 -297 0 -12 5
-16 16 -12 9 3 27 9 40 12 26 7 30 14 14 30 -12 12 -52 126 -46 132 3 2 32
-19 66 -47 78 -65 92 -72 129 -65 42 9 46 19 14 33 -32 15 -143 103 -143 114
0 4 4 7 10 7 18 0 42 61 35 89 -16 66 -70 77 -183 38z m116 -29 c22 -22 14
-75 -14 -97 -15 -12 -30 -21 -35 -21 -11 0 -42 98 -35 115 7 18 67 20 84 3z"/>
<path d="M962 2767 c-30 -11 -31 -14 -18 -32 8 -11 21 -44 29 -72 l16 -52 -56
-16 c-30 -9 -56 -15 -58 -13 -8 10 -35 105 -35 124 0 21 -2 21 -35 11 -27 -8
-34 -14 -29 -26 26 -56 94 -279 90 -294 -3 -13 0 -17 11 -13 8 3 26 9 39 12
14 4 23 9 21 13 -16 30 -39 87 -44 111 -5 26 -2 31 23 41 73 27 80 25 98 -27
9 -26 16 -60 16 -76 0 -26 2 -27 28 -17 15 5 33 12 41 15 11 4 11 7 -2 22 -18
20 -87 239 -87 276 0 29 -2 29 -48 13z"/>
<path d="M2580 2715 c0 -41 -45 -258 -60 -284 -8 -16 -4 -20 30 -29 l40 -10 0
34 c0 41 46 257 60 284 9 17 6 20 -17 26 -16 3 -34 7 -40 10 -9 2 -13 -8 -13
-31z"/>
<path d="M3413 2723 c-7 -2 -13 -19 -13 -36 0 -43 -37 -268 -50 -301 -8 -22
-7 -26 9 -26 39 0 46 9 43 54 -4 50 5 59 73 70 37 6 42 5 58 -23 9 -16 17 -38
17 -50 0 -18 4 -20 33 -15 59 10 60 12 37 41 -12 15 -55 87 -97 160 -72 127
-82 138 -110 126z m56 -153 c33 -54 33 -54 -28 -64 -30 -5 -33 -4 -28 17 3 12
9 39 12 60 4 20 9 37 10 37 2 0 17 -23 34 -50z"/>
<path d="M2714 2704 c7 -19 -22 -282 -35 -306 -12 -23 9 -28 110 -31 67 -1 85
2 108 19 40 30 44 94 9 129 -25 25 -25 26 -7 44 28 28 36 77 17 106 -17 26
-57 39 -150 49 -51 6 -58 4 -52 -10z m134 -40 c44 -31 16 -98 -45 -110 -31 -6
-33 -5 -33 22 0 16 3 46 6 67 5 29 11 37 28 37 12 0 32 -7 44 -16z m-29 -135
c35 -12 51 -35 51 -73 0 -37 -25 -56 -76 -56 l-45 0 7 63 c9 86 8 85 63 66z"/>
<path d="M3000 2669 c7 -13 10 -74 8 -172 l-3 -152 42 4 c38 3 42 6 39 25 -10
49 -16 136 -9 136 5 0 24 -24 43 -52 63 -93 79 -108 116 -108 l34 0 -61 81
-60 82 36 30 c33 27 36 33 33 75 -4 61 -25 72 -141 72 -86 0 -87 -1 -77 -21z
m151 -30 c33 -33 2 -95 -51 -101 -24 -3 -25 -1 -28 60 l-3 62 31 0 c17 0 39
-9 51 -21z"/>
</g>
</svg>
